<svg width="298" height="297" viewBox="0 0 298 297" fill="none" xmlns="http://www.w3.org/2000/svg">
<g opacity="0.7" clip-path="url(#clip0)">
<path d="M126.559 172.352C129.718 182.57 137.817 189.234 147.374 192.303C151.423 194.04 155.877 195.009 160.494 194.928C164.665 194.888 168.674 193.999 172.399 192.465C182.32 189.436 190.703 182.611 193.78 171.949C193.942 171.383 193.942 170.899 193.861 170.454C193.699 168.233 191.837 166.456 189.569 166.456C188.678 166.456 187.828 166.739 187.139 167.223C186.41 167.547 185.762 168.193 185.479 169.202C183.211 177.199 177.34 183.62 169.848 186.649C168.107 187.134 166.285 187.497 164.462 187.74C164.543 187.417 164.584 187.093 164.584 186.69C164.584 177.845 164.584 169.041 164.584 160.196C168.39 160.196 172.197 160.196 176.003 160.196C181.146 160.196 181.146 152.2 176.003 152.2C172.197 152.2 168.39 152.2 164.584 152.2C164.584 149.05 164.584 145.859 164.584 142.709C169.524 141.134 173.047 136.651 173.614 131.36C173.695 131.037 173.695 130.714 173.695 130.31C173.695 129.947 173.695 129.583 173.614 129.26C172.885 122.677 167.621 117.346 160.696 117.306C153.65 117.266 147.657 123.243 147.698 130.27C147.738 135.884 151.464 140.811 156.566 142.547C156.566 145.738 156.566 148.969 156.566 152.159C153.083 152.159 149.601 152.159 146.118 152.159C140.975 152.159 140.975 160.156 146.118 160.156C149.601 160.156 153.083 160.156 156.566 160.156C156.566 169 156.566 177.805 156.566 186.649C156.566 187.053 156.606 187.457 156.728 187.78C154.663 187.578 152.597 187.215 150.654 186.69C143.203 183.782 137.29 177.562 134.901 169.647C134.78 169.283 134.658 169 134.456 168.718C133.727 167.345 132.31 166.375 130.609 166.375C128.22 166.375 126.276 168.314 126.276 170.697C126.276 170.979 126.316 171.222 126.357 171.504C126.438 171.787 126.478 172.07 126.559 172.352ZM155.715 130.31C155.715 123.849 165.475 123.889 165.758 130.31C165.515 136.772 155.715 136.813 155.715 130.31Z" fill="#015A62"/>
<path d="M165.515 307V275.741C194.631 274.449 221.074 262.737 241.159 244.28L263.755 266.816L270.356 260.233L247.76 237.697C266.63 217.464 278.495 190.688 279.669 161.246H310.04V151.917H279.669C278.536 122.718 266.833 96.1437 248.246 75.991L267.481 56.8076L260.88 50.2246L241.686 69.3677C221.519 50.5881 194.874 38.6742 165.515 37.3818V10H156.161V37.3011C126.357 38.2703 99.2659 50.1842 78.7756 69.1254L59.7837 50.1842L53.183 56.7672L72.2155 75.7487C53.5475 95.9418 41.7636 122.597 40.6297 151.877H12V161.206H40.5892C41.7231 190.769 53.7095 217.585 72.661 237.859L50.2674 260.192L56.868 266.775L79.3021 244.401C99.7114 263.06 126.6 274.772 156.161 275.741V306.96H165.515V307ZM165.515 252.398V225.339C180.741 224.168 194.55 218.07 205.443 208.66L224.637 227.803C208.763 242.059 188.192 251.146 165.515 252.398ZM231.238 221.179L212.043 202.036C221.803 190.97 228.079 176.795 229.132 161.165H256.264C255.17 184.266 245.856 205.186 231.238 221.179ZM256.264 151.877H229.132C228.12 136.53 222.005 122.556 212.529 111.571L231.724 92.4282C246.059 108.381 255.17 129.099 256.264 151.877ZM165.515 60.6847C188.435 61.9366 209.249 71.2658 225.164 85.8049L205.969 104.948C194.995 95.2552 180.984 88.955 165.515 87.7838V60.6847ZM160.129 96.8707C193.132 96.8707 219.94 123.647 219.94 156.521C219.94 189.436 193.092 216.171 160.129 216.171C127.126 216.171 100.319 189.395 100.319 156.521C100.319 123.647 127.126 96.8707 160.129 96.8707ZM156.161 60.6443V87.703C140.247 88.5915 125.749 94.8918 114.492 104.786L95.2975 85.6433C111.536 70.9024 132.795 61.5732 156.161 60.6443ZM88.7373 92.2263L107.932 111.369C98.3345 122.395 92.1794 136.449 91.167 151.877H64.0356C65.0885 129.018 74.2807 108.179 88.7373 92.2263ZM63.9951 161.206H91.1265C92.1794 176.916 98.537 191.172 108.377 202.279L89.2233 221.381C74.4832 205.348 65.0885 184.347 63.9951 161.206ZM95.8644 227.964L115.059 208.821C126.235 218.433 140.53 224.531 156.201 225.42V252.479C133.038 251.509 111.981 242.422 95.8644 227.964Z" fill="#015A62"/>
</g>
<defs>
<clipPath id="clip0">
<rect width="298" height="297" fill="white"/>
</clipPath>
</defs>
</svg>
