<svg width="94" height="72" viewBox="0 0 94 72" fill="none" xmlns="http://www.w3.org/2000/svg">
<ellipse cx="58.5" cy="47.5" rx="35.5" ry="24.5" fill="#FFF301"/>
<g clip-path="url(#clip0)">
<path d="M35.3614 64.6903C37.8887 64.6903 39.9375 62.6415 39.9375 60.1141C39.9375 57.5868 37.8887 55.538 35.3614 55.538C32.834 55.538 30.7852 57.5868 30.7852 60.1141C30.7852 62.6415 32.834 64.6903 35.3614 64.6903Z" fill="#015A62"/>
<path d="M70.2555 21.4752C61.1406 11.6957 48.7979 6.30965 35.4995 6.30951C22.2023 6.30965 9.85957 11.6957 0.744547 21.4752C-0.29965 22.5957 -0.237941 24.3507 0.882526 25.395C2.00313 26.4392 3.75802 26.3777 4.80236 25.257C12.8564 16.6156 23.7582 11.8565 35.5005 11.8564C47.2418 11.8565 58.1437 16.6156 66.1977 25.257C66.7439 25.8431 67.4846 26.1396 68.2272 26.1396C68.9043 26.1396 69.5831 25.893 70.1175 25.395C71.238 24.3505 71.2998 22.5957 70.2555 21.4752Z" fill="#015A62"/>
<path d="M60.0717 32.9287C53.3341 26.1402 44.6076 22.4017 35.4996 22.402C26.3896 22.4021 17.663 26.1407 10.9275 32.929C9.84859 34.0163 9.85539 35.7723 10.9427 36.8512C12.03 37.93 13.786 37.9232 14.8649 36.8359C20.5511 31.1052 27.8794 27.949 35.4996 27.9488C43.118 27.9486 50.4462 31.1049 56.1345 36.8362C56.6767 37.3824 57.3898 37.6559 58.1031 37.6559C58.8092 37.6559 59.5159 37.3877 60.057 36.8509C61.144 35.7719 61.1507 34.0159 60.0717 32.9287Z" fill="#015A62"/>
<path d="M48.972 44.4155C45.3638 40.8407 40.1917 38.6201 35.4738 38.6201C35.4733 38.6201 35.4723 38.6201 35.4718 38.6201H35.2719C35.2711 38.6201 35.2707 38.6201 35.2699 38.6201C30.5518 38.6201 25.3794 40.8408 21.7713 44.4155C20.6833 45.4935 20.6751 47.2495 21.7531 48.3377C22.2955 48.885 23.0093 49.1592 23.7234 49.1592C24.4288 49.1592 25.1345 48.8917 25.6752 48.356C28.2438 45.8111 32.0097 44.167 35.2701 44.167C35.2705 44.167 35.2711 44.167 35.2715 44.167H35.4722C35.4727 44.167 35.4729 44.167 35.4734 44.167C38.7335 44.167 42.4996 45.8112 45.068 48.356C46.156 49.4339 47.9123 49.4261 48.9902 48.3377C50.0683 47.2496 50.0602 45.4935 48.972 44.4155Z" fill="#015A62"/>
</g>
<defs>
<clipPath id="clip0">
<rect width="71" height="71" fill="white"/>
</clipPath>
</defs>
</svg>
