<svg width="93" height="77" viewBox="0 0 93 77" fill="none" xmlns="http://www.w3.org/2000/svg">
<ellipse cx="57.5" cy="52.5" rx="35.5" ry="24.5" fill="#FFF301"/>
<g clip-path="url(#clip0)">
<path d="M72.7623 26.5995C72.7623 17.2676 65.173 9.67557 55.8445 9.67557C55.4392 9.67557 55.03 9.69081 54.6187 9.72153C50.6045 3.68613 43.8037 0 36.5 0C29.1966 0 22.3958 3.68687 18.3815 9.72153C17.9703 9.69081 17.561 9.67557 17.1557 9.67557C7.82697 9.67557 0.237671 17.2676 0.237671 26.5995C0.237671 35.113 6.55549 42.1748 14.747 43.3482V66.737C14.747 70.1906 17.5564 73 21.0097 73H51.9903C55.4439 73 58.253 70.1904 58.253 66.737V43.3482C66.4447 42.1748 72.7623 35.1128 72.7623 26.5995ZM51.9903 68.1822H21.01C20.2269 68.1822 19.5647 67.5203 19.5647 66.7367V43.3504C21.9248 43.0162 24.1655 42.1898 26.1866 40.9048C29.2868 42.5816 32.8126 43.5227 36.5 43.5227C40.1874 43.5227 43.713 42.5816 46.8132 40.9051C48.8348 42.1898 51.0757 43.0162 53.4355 43.3504V66.7367C53.4355 67.5203 52.7736 68.1822 51.9903 68.1822ZM55.8445 38.705C54.223 38.705 52.6556 38.3882 51.1991 37.7793C54.1306 35.0919 56.3467 31.5987 57.4594 27.5842C57.8145 26.3021 57.0634 24.9746 55.7813 24.6192C54.499 24.264 53.172 25.0154 52.8164 26.2972C50.792 33.6029 44.0824 38.705 36.5 38.705C28.9176 38.705 22.2082 33.6029 20.1836 26.2972C19.8285 25.0152 18.5017 24.264 17.2187 24.6192C15.9366 24.9744 15.1855 26.3021 15.5406 27.5842C16.6531 31.5987 18.8694 35.0921 21.8009 37.7793C20.3444 38.3882 18.777 38.705 17.1557 38.705C10.4835 38.705 5.05543 33.2745 5.05543 26.5995C5.05543 19.9243 10.4837 14.4933 17.1557 14.4933C17.8302 14.4933 18.5245 14.5538 19.2196 14.6728C20.223 14.8438 21.2278 14.3663 21.7267 13.478C24.7266 8.13618 30.3874 4.81775 36.4997 4.81775C42.6121 4.81775 48.2729 8.13643 51.2733 13.4782C51.772 14.3665 52.7763 14.8441 53.7803 14.6728C54.4754 14.5538 55.1698 14.4933 55.844 14.4933C62.516 14.4933 67.9441 19.9243 67.9441 26.5995C67.9448 33.2745 62.5165 38.705 55.8445 38.705Z" fill="#015A62"/>
</g>
<defs>
<clipPath id="clip0">
<rect width="73" height="73" fill="white"/>
</clipPath>
</defs>
</svg>
