<svg width="87" height="63" viewBox="0 0 87 63" fill="none" xmlns="http://www.w3.org/2000/svg">
<ellipse cx="51.5" cy="38.5" rx="35.5" ry="24.5" fill="#FFF301"/>
<path d="M0 0V63H11.1973V11.0742H18.5801V51.9258H44.4199V11.0742H51.8027V63H63V0H0ZM59.3086 3.69141V48.2344H55.4941V3.69141H59.3086ZM7.50586 3.69141V48.2344H3.69141V3.69141H7.50586ZM3.69141 59.3086V51.9258H7.50586V59.3086H3.69141ZM22.2715 48.2344V44.543H40.7285V48.2344H22.2715ZM40.7285 40.8516H22.2715V11.0742H40.7285V40.8516ZM11.1973 7.38281V3.69141H51.8027V7.38281H11.1973ZM55.4941 59.3086V51.9258H59.3086V59.3086H55.4941Z" fill="#015A62"/>
</svg>
