<svg width="101" height="96" viewBox="0 0 101 96" fill="none" xmlns="http://www.w3.org/2000/svg">
<ellipse cx="65.5" cy="58.5" rx="35.5" ry="24.5" fill="#FFF301"/>
<path d="M93.9281 19.5798H2.07194C0.927885 19.5798 0 20.5077 0 21.6518V29.5942C0 30.7383 0.927885 31.6662 2.07194 31.6662H9.59447V72.2762H3.52541C2.38135 72.2762 1.45347 73.2041 1.45347 74.3482C1.45347 75.4922 2.38135 76.4201 3.52541 76.4201H19.8482H28.0368H67.9632H76.1518H92.4746C93.6186 76.4201 94.5465 75.4922 94.5465 74.3482C94.5465 73.2041 93.6186 72.2762 92.4746 72.2762H86.4055V31.6662H93.9281C95.0721 31.6662 96 30.7383 96 29.5942V21.6518C96 20.5074 95.0721 19.5798 93.9281 19.5798ZM21.9201 72.2762V62.63H25.9649V72.2762H21.9201ZM58.0144 72.2762H37.9856V55.8319C37.9856 50.3098 42.4779 45.8175 48 45.8175C53.5221 45.8175 58.0144 50.3098 58.0144 55.8319V72.2762ZM70.0351 72.2762V62.63H74.0799V72.2762H70.0351ZM78.2238 72.2762V60.558C78.2238 59.414 77.2959 58.4861 76.1518 58.4861H67.9632C66.8191 58.4861 65.8912 59.414 65.8912 60.558V72.2762H62.1583V55.8319C62.1583 48.0252 55.8067 41.6736 48 41.6736C40.1933 41.6736 33.8417 48.0252 33.8417 55.8319V72.2762H30.1088V60.558C30.1088 59.414 29.1809 58.4861 28.0368 58.4861H19.8482C18.7041 58.4861 17.7762 59.414 17.7762 60.558V72.2762H13.7384V32.3938H82.2616V72.2762H78.2238ZM91.8561 27.5223H4.14388V23.7237H91.8561V27.5223Z" fill="#015A62"/>
</svg>
