<svg width="90" height="61" viewBox="0 0 90 61" fill="none" xmlns="http://www.w3.org/2000/svg">
<ellipse cx="54.5" cy="33.5" rx="35.5" ry="24.5" fill="#FFF301"/>
<g clip-path="url(#clip0)">
<path d="M-4.70635 2.45181H1.86875L11.2345 36.3214C11.5021 37.3153 12.4195 38.0034 13.4517 38.0034H42.237C43.1545 38.0034 43.9573 37.4682 44.3395 36.6272L54.8138 12.5439C55.1197 11.8176 55.0432 11.0148 54.6226 10.3649C54.2021 9.715 53.4758 9.33277 52.7112 9.33277H20.9061C19.6446 9.33277 18.6124 10.3649 18.6124 11.6264C18.6124 12.8879 19.6446 13.9201 20.9061 13.9201H49.1945L40.708 33.4161H15.1719L5.80627 -0.453441C5.53872 -1.4474 4.62126 -2.1355 3.58912 -2.1355H-4.70635C-5.96786 -2.1355 -7 -1.10335 -7 0.158154C-7 1.41966 -5.96786 2.45181 -4.70635 2.45181Z" fill="#015A62"/>
<path d="M11.2728 54.1355C14.1398 54.1355 16.4717 51.8036 16.4717 48.9366C16.4717 46.0695 14.1398 43.7377 11.2728 43.7377C8.40569 43.7377 6.07385 46.0694 6.07385 48.9364C6.07385 51.8035 8.40569 54.1355 11.2728 54.1355Z" fill="#015A62"/>
<path d="M43.7662 54.1355C43.8809 54.1355 44.0338 54.1355 44.1484 54.1355C45.5246 54.0208 46.7861 53.4092 47.7036 52.3387C48.6211 51.3066 49.0416 49.9686 48.9651 48.5542C48.7739 45.7253 46.2892 43.5463 43.4222 43.7375C40.5551 43.9287 38.4143 46.4517 38.6055 49.2805C38.7965 51.9947 41.052 54.1355 43.7662 54.1355Z" fill="#015A62"/>
</g>
<defs>
<clipPath id="clip0">
<rect width="61" height="61" fill="white"/>
</clipPath>
</defs>
</svg>
