<svg width="116" height="77" viewBox="0 0 116 77" fill="none" xmlns="http://www.w3.org/2000/svg">
<ellipse cx="80.5" cy="52.5" rx="35.5" ry="24.5" fill="#FFF301"/>
<path d="M28.5742 14.2871C28.5742 6.40923 22.165 0 14.2871 0C6.40923 0 0 6.40923 0 14.2871C0 21.3978 5.22137 27.3106 12.0312 28.3956V74.7441C12.0312 75.9902 13.0411 77 14.2871 77C15.5331 77 16.543 75.9902 16.543 74.7441V28.3956C23.3528 27.3106 28.5742 21.3978 28.5742 14.2871ZM14.2871 24.0625C8.89713 24.0625 4.51172 19.6771 4.51172 14.2871C4.51172 8.89713 8.89713 4.51172 14.2871 4.51172C19.6771 4.51172 24.0625 8.89713 24.0625 14.2871C24.0625 19.6771 19.6771 24.0625 14.2871 24.0625Z" fill="#015A62"/>
<path d="M67.9766 56.6973C67.9766 57.9433 66.9667 58.9531 65.7207 58.9531C64.4747 58.9531 63.4648 57.9433 63.4648 56.6973C63.4648 55.4513 64.4747 54.4414 65.7207 54.4414C66.9667 54.4414 67.9766 55.4513 67.9766 56.6973Z" fill="#015A62"/>
<path d="M40.9062 56.6973C40.9062 57.9433 39.8964 58.9531 38.6504 58.9531C37.4044 58.9531 36.3945 57.9433 36.3945 56.6973C36.3945 55.4513 37.4044 54.4414 38.6504 54.4414C39.8964 54.4414 40.9062 55.4513 40.9062 56.6973Z" fill="#015A62"/>
<path d="M45.418 56.6973C45.418 57.9433 46.4278 58.9531 47.6738 58.9531H56.6973C57.9433 58.9531 58.9531 57.9433 58.9531 56.6973C58.9531 55.4513 57.9433 54.4414 56.6973 54.4414H47.6738C46.4278 54.4414 45.418 55.4513 45.418 56.6973Z" fill="#015A62"/>
<path d="M68.7285 22.5586H35.6426C31.0815 22.5586 27.3711 26.269 27.3711 30.8301V65.7207C27.3711 66.9667 28.3809 67.9766 29.627 67.9766H30.3789V71.7363C30.3789 74.639 32.7399 77 35.6426 77H41.6582C44.5609 77 46.9219 74.639 46.9219 71.7363V67.9766H57.4492V71.7363C57.4492 74.639 59.8102 77 62.7129 77H68.7285C71.6312 77 73.9922 74.639 73.9922 71.7363V67.9766H74.7441C75.9902 67.9766 77 66.9667 77 65.7207V30.8301C77 26.269 73.2896 22.5586 68.7285 22.5586ZM72.4883 63.4648H31.8828V49.9297H72.4883V63.4648ZM49.9297 45.418H31.8828V36.0938H49.9297V45.418ZM54.4414 45.418V36.0938H72.4883V45.418H54.4414ZM31.8828 30.8301C31.8828 28.7569 33.5694 27.0703 35.6426 27.0703H68.7285C70.8017 27.0703 72.4883 28.7569 72.4883 30.8301V31.582H31.8828V30.8301ZM42.4102 71.7363C42.4102 72.1511 42.073 72.4883 41.6582 72.4883H35.6426C35.2278 72.4883 34.8906 72.1511 34.8906 71.7363V67.9766H42.4102V71.7363ZM69.4805 71.7363C69.4805 72.1511 69.1433 72.4883 68.7285 72.4883H62.7129C62.2981 72.4883 61.9609 72.1511 61.9609 71.7363V67.9766H69.4805V71.7363Z" fill="#015A62"/>
</svg>
