<svg width="99" height="71" viewBox="0 0 99 71" fill="none" xmlns="http://www.w3.org/2000/svg">
<ellipse cx="63.5" cy="29.5" rx="35.5" ry="24.5" fill="#FFF301"/>
<path d="M68.2266 22.1872C66.0846 22.1872 6.85081 22.1872 2.77344 22.1872C1.24167 22.1872 0 23.4289 0 24.9607C0 26.4924 1.24167 27.7341 2.77344 27.7341H6.36088C7.26516 37.3091 12.8005 45.5552 20.6976 50.2038L12.7241 67.0386C12.0685 68.4229 12.6592 70.0766 14.0434 70.7322C15.4331 71.3904 17.084 70.7919 17.7371 69.4129L25.7236 52.5507C27.9475 53.3411 30.294 53.8697 32.7266 54.0995V68.184C32.7266 69.7158 33.9682 70.9574 35.5 70.9574C37.0318 70.9574 38.2734 69.7158 38.2734 68.184V54.0995C40.706 53.8697 43.0525 53.3411 45.2764 52.5507L53.2629 69.4129C53.9176 70.795 55.5701 71.389 56.9566 70.7322C58.3409 70.0766 58.9315 68.4229 58.276 67.0386L50.3025 50.2037C58.1996 45.5551 63.7351 37.309 64.6393 27.734H68.2266C69.7583 27.734 71 26.4923 71 24.9605C71 23.4289 69.7583 22.1872 68.2266 22.1872ZM35.5 48.6849C23.3564 48.6849 13.3144 39.5136 11.9366 27.7341H59.0634C57.6854 39.5136 47.6435 48.6849 35.5 48.6849ZM12.4572 13.867C12.4572 7.17613 18.004 6.51591 18.004 2.77344C18.004 1.24167 19.2457 0 20.7775 0C22.3093 0 23.5509 1.24167 23.5509 2.77344C23.5509 9.46436 18.004 10.1246 18.004 13.867C18.004 15.3988 16.7624 16.6405 15.2306 16.6405C13.6988 16.6405 12.4572 15.3988 12.4572 13.867ZM29.9531 13.867C29.9531 7.17613 35.5 6.51591 35.5 2.77344C35.5 1.24167 36.7417 0 38.2734 0C39.8052 0 41.0469 1.24167 41.0469 2.77344C41.0469 9.46255 35.5 10.1258 35.5 13.867C35.5 15.3988 34.2583 16.6405 32.7266 16.6405C31.1948 16.6405 29.9531 15.3988 29.9531 13.867ZM47.4491 13.867C47.4491 7.17793 52.996 6.51467 52.996 2.77344C52.996 1.24167 54.2376 0 55.7694 0C57.3012 0 58.5428 1.24167 58.5428 2.77344C58.5428 9.46255 52.996 10.1258 52.996 13.867C52.996 15.3988 51.7543 16.6405 50.2225 16.6405C48.6907 16.6405 47.4491 15.3988 47.4491 13.867Z" fill="#015A62"/>
</svg>
