<svg width="99" height="87" viewBox="0 0 99 87" fill="none" xmlns="http://www.w3.org/2000/svg">
<ellipse cx="63.5" cy="62.5" rx="35.5" ry="24.5" fill="#FFF301"/>
<path d="M37.2795 60.0159C37.3263 59.8937 37.3706 59.7702 37.4118 59.6448C39.675 60.3977 42.0617 60.7878 44.4534 60.7878C45.4685 60.7878 46.4842 60.7175 47.4917 60.5769C52.2638 59.9082 56.592 57.7495 60.0071 54.3332L61.7269 52.6139L47.7754 38.663L53.1079 33.3305L49.6694 29.8914L44.3369 35.2239L30.5481 21.4351L28.8289 23.1544C24.6824 27.3008 22.3888 32.8138 22.3711 38.6776C22.3572 43.2844 23.7497 47.6823 26.3453 51.3785C24.4361 52.6956 23.1816 54.8968 23.1816 57.3867C23.1816 58.3137 23.357 59.1996 23.6737 60.0159L14.3999 78.1367H0V83H83V78.1367H46.5533L37.2795 60.0159ZM28.0449 57.3867C28.0449 56.0461 29.136 54.955 30.4766 54.955C31.8171 54.955 32.9082 56.0461 32.9082 57.3867C32.9082 58.7272 31.8171 59.8183 30.4766 59.8183C29.136 59.8183 28.0449 58.7272 28.0449 57.3867ZM30.6697 28.435L54.7246 52.4898C49.6815 56.2525 42.8222 56.9928 37.0768 54.2832C36.0598 52.1302 34.0221 50.5515 31.5917 50.1766C26.1281 44.0525 25.8267 34.8946 30.6697 28.435ZM19.8628 78.1367L27.159 63.8806C28.1551 64.3916 29.2823 64.6816 30.4766 64.6816C31.6709 64.6816 32.798 64.3916 33.7941 63.8806L41.0903 78.1367H19.8628Z" fill="#015A62"/>
<path d="M68.4102 31.6113V31.7734H73.2734V31.6113C73.2734 19.455 63.3829 9.56445 51.2266 9.56445V14.4277C60.7017 14.4277 68.4102 22.1362 68.4102 31.6113Z" fill="#015A62"/>
<path d="M78.1367 31.7734H83C83 14.2536 68.7464 0 51.2266 0V4.86328C66.0646 4.86328 78.1367 16.9354 78.1367 31.7734Z" fill="#015A62"/>
<path d="M51.3076 19.4531V24.3164C55.4192 24.3164 58.7646 27.6618 58.7646 31.7734H63.6279C63.6279 24.98 58.101 19.4531 51.3076 19.4531Z" fill="#015A62"/>
</svg>
