<svg width="104" height="85" viewBox="0 0 104 85" fill="none" xmlns="http://www.w3.org/2000/svg">
<ellipse cx="68.5" cy="49.5" rx="35.5" ry="24.5" fill="#FFF301"/>
<path d="M83.4805 40.0098H75.9219C74.5304 40.0098 73.4023 41.1247 73.4023 42.5C73.4023 43.8753 74.5304 44.9902 75.9219 44.9902H83.4805C84.8719 44.9902 86 43.8753 86 42.5C86 41.1247 84.8719 40.0098 83.4805 40.0098Z" fill="#015A62"/>
<path d="M80.223 55.6807L75.184 50.7002C74.2002 49.7279 72.6048 49.7279 71.6208 50.7002C70.6367 51.6726 70.6367 53.2494 71.6208 54.2219L76.6599 59.2024C77.6437 60.1749 79.2392 60.1749 80.223 59.2024C81.207 58.2298 81.207 56.6532 80.223 55.6807Z" fill="#015A62"/>
<path d="M80.2229 25.7979C79.2391 24.8255 77.6437 24.8255 76.6598 25.7979L71.6207 30.7783C70.6368 31.7509 70.6368 33.3275 71.6207 34.3C72.6047 35.2725 74.2 35.2724 75.1838 34.3L80.2229 29.3196C81.2069 28.347 81.2069 26.7704 80.2229 25.7979Z" fill="#015A62"/>
<path d="M58.2852 10.127C54.5007 10.127 51.3573 12.8903 50.8111 16.4827L48.5127 18.7543C44.5126 22.7079 38.6216 25.0684 32.7539 25.0684H17.6367C14.3521 25.0684 11.5515 27.1504 10.5115 30.0488H10.0781C4.52105 30.0488 0 34.5173 0 40.0098C0 45.5022 4.52105 49.9707 10.0781 49.9707H10.5115C11.2719 52.0897 12.9732 53.7713 15.1172 54.5229V67.4023C15.1172 71.5217 18.5081 74.873 22.676 74.873C26.8436 74.873 30.2344 71.5217 30.2344 67.4023V54.9512H32.7539C38.6214 54.9512 44.5124 57.3116 48.5127 61.2652L50.8111 63.5368C51.3573 67.1291 54.5008 69.8926 58.2853 69.8926C62.453 69.8926 65.8438 66.5412 65.8438 62.4219V17.5977C65.8438 13.4783 62.453 10.127 58.2852 10.127ZM10.0781 44.9902C7.29959 44.9902 5.03906 42.756 5.03906 40.0098C5.03906 37.2635 7.29959 35.0293 10.0781 35.0293V44.9902ZM25.1953 67.4023C25.1953 68.7755 24.0651 69.8926 22.6758 69.8926C21.2865 69.8926 20.1562 68.7755 20.1562 67.4023V54.9512H25.1953V67.4023ZM30.2344 49.9707H17.6367C16.2474 49.9707 15.1172 48.8536 15.1172 47.4805V32.5391C15.1172 31.1659 16.2474 30.0488 17.6367 30.0488H30.2344V49.9707ZM50.7266 56.5028C46.4701 52.8617 40.9975 50.5994 35.2566 50.0836L35.2568 29.9358C40.9975 29.4201 46.4701 27.1578 50.7266 23.5166V56.5028ZM60.8047 62.4219C60.8047 63.795 59.6744 64.9121 58.2853 64.9121H58.2852C56.8959 64.9121 55.7656 63.795 55.7656 62.4219V17.5977C55.7656 16.2245 56.8959 15.1074 58.2853 15.1074C59.6744 15.1074 60.8047 16.2245 60.8047 17.5977V62.4219Z" fill="#015A62"/>
</svg>
